<svg width="226" height="226" viewBox="0 0 226 226" fill="none" xmlns="http://www.w3.org/2000/svg">
<path d="M217.8 71C214.8 63.5 211 56.4 206.5 49.7C186.2 19.7 151.8 0 112.9 0C50.5 0 0 50.6 0 112.9C0 175.3 50.6 225.9 112.9 225.9C151.9 225.9 186.2 206.2 206.5 176.2C211 169.6 214.7 162.5 217.8 155C223 142 225.9 127.8 225.9 113C225.8 98.2 223 84 217.8 71ZM202.7 101.5H73.4C75.4 94.5 79.1 88.3 84.1 83.4C91.7 75.8 102.2 71.1 113.8 71.1H193.2C198.1 80.4 201.3 90.6 202.7 101.5ZM112.3 21.9C138 21.9 161.3 32.6 177.9 49.8H116.6C99.1 49.8 83.3 56.9 71.9 68.3C63 77.2 56.8 88.6 54.5 101.5H22C27.6 56.6 65.9 21.9 112.3 21.9ZM112.3 204.2C65.9 204.2 27.6 169.5 21.9 124.6H54.4C59.8 154 85.6 176.3 116.6 176.3H177.9C161.4 193.5 138.1 204.2 112.3 204.2ZM113.8 155.1C94.6 155.1 78.4 142.2 73.4 124.6H202.7C201.3 135.5 198 145.7 193.2 155.1H113.8Z" fill="#F2F0F2"/>
</svg>
