<svg width="83" height="83" viewBox="0 0 83 83" fill="none" xmlns="http://www.w3.org/2000/svg">
<path d="M49 26.5H34C29.8579 26.5 26.5 29.8579 26.5 34V49C26.5 53.1421 29.8579 56.5 34 56.5H49C53.1421 56.5 56.5 53.1421 56.5 49V34C56.5 29.8579 53.1421 26.5 49 26.5Z" stroke="#00E3B9" stroke-width="7.5" stroke-linecap="round" stroke-linejoin="round"/>
<path d="M11.5 34C9.51088 34 7.60322 33.2098 6.1967 31.8033C4.79018 30.3968 4 28.4891 4 26.5V11.5C4 9.51088 4.79018 7.60322 6.1967 6.1967C7.60322 4.79018 9.51088 4 11.5 4H26.5C28.4891 4 30.3968 4.79018 31.8033 6.1967C33.2098 7.60322 34 9.51088 34 11.5" stroke="black" stroke-width="7.5" stroke-linecap="round" stroke-linejoin="round"/>
<path d="M49 71.5C49 73.4891 49.7902 75.3968 51.1967 76.8033C52.6032 78.2098 54.5109 79 56.5 79H71.5C73.4891 79 75.3968 78.2098 76.8033 76.8033C78.2098 75.3968 79 73.4891 79 71.5V56.5C79 54.5109 78.2098 52.6032 76.8033 51.1967C75.3968 49.7902 73.4891 49 71.5 49" stroke="black" stroke-width="7.5" stroke-linecap="round" stroke-linejoin="round"/>
</svg>
